<svg xmlns="http://www.w3.org/2000/svg" viewBox="0 0 52.4 68.21"><defs><style>.cls-1{fill:#f9bb9c;}.cls-2{fill:#f99c80;}.cls-3{fill:#32324c;}.cls-4{fill:#dc795f;}.cls-5{fill:#920e08;}.cls-6{fill:#ff8175;}</style></defs><g id="Camada_2" data-name="Camada 2"><g id="OBJECTS"><path class="cls-1" d="M34.87,56.12l-.28,4.44-.34,5.56s-1.3,2.09-7.16,2.09S20,66.78,20,66.78l-.24-2.47L19,56.12Z"/><path class="cls-2" d="M34.87,56.12l-.28,4.44c-2.44,1.55-8.23,4.61-14.8,3.75L19,56.12Z"/><path class="cls-3" d="M8,43.7s-2,2.66-.84,5.17a3.2,3.2,0,0,0,3.4,2.06s-.23,3.31,1.78,4.27,4.51-1.65,4.09-4.27S12.15,41.88,8,43.7Z"/><path class="cls-3" d="M45.19,43.7s2,2.66.84,5.17a3.2,3.2,0,0,1-3.4,2.06s.23,3.31-1.78,4.27-4.51-1.65-4.09-4.27S41.06,41.88,45.19,43.7Z"/><path class="cls-2" d="M12.2,30.19s-3.56-5.35-8.9-2.85S0,45.8,9.29,44.49C9.29,44.49,13.8,37.84,12.2,30.19Z"/><path class="cls-4" d="M7.12,39.21a.75.75,0,0,1-.74-.71,10.53,10.53,0,0,0-3-6.44.74.74,0,0,1,1-1.08,11.87,11.87,0,0,1,3.44,7.45.75.75,0,0,1-.71.78Z"/><path class="cls-4" d="M4.28,37.43H4.17a.75.75,0,0,1-.63-.85,3.83,3.83,0,0,1,2.19-2.85.75.75,0,0,1,.54,1.39A2.34,2.34,0,0,0,5,36.79.75.75,0,0,1,4.28,37.43Z"/><path class="cls-2" d="M42,30.45s2.13-5.69,7.48-3.2,3.31,18.46-6,17.15A23.62,23.62,0,0,1,42,30.45Z"/><path class="cls-4" d="M46,39.21h0a.75.75,0,0,1-.71-.78A11.82,11.82,0,0,1,48.74,31a.74.74,0,1,1,1,1.08,10.55,10.55,0,0,0-3,6.44A.73.73,0,0,1,46,39.21Z"/><path class="cls-4" d="M48.89,37.43a.76.76,0,0,1-.74-.63,2.3,2.3,0,0,0-1.26-1.69.75.75,0,0,1-.42-1,.74.74,0,0,1,1-.42,3.8,3.8,0,0,1,2.19,2.85.75.75,0,0,1-.62.85Z"/><path class="cls-1" d="M6.81,17.33s-5.1,42,19.87,42S45.38,17,45.38,17Z"/><path class="cls-3" d="M17.4,31a1.83,1.83,0,1,0,1.83-1.83A1.83,1.83,0,0,0,17.4,31Z"/><path class="cls-3" d="M36.69,31a1.83,1.83,0,1,1-1.83-1.83A1.83,1.83,0,0,1,36.69,31Z"/><path class="cls-2" d="M26.1,41.53a7.58,7.58,0,0,1-2.31-.39.74.74,0,0,1,.47-1.41s3.09,1,3.7-.63-.46-6-1.26-8.4a.76.76,0,0,1,.48-.94.75.75,0,0,1,.94.48c.22.7,2.19,6.91,1.23,9.4A3.18,3.18,0,0,1,26.1,41.53Z"/><path class="cls-2" d="M27.13,53.9a7.19,7.19,0,0,1-3.88-1.13.5.5,0,0,1-.16-.68.49.49,0,0,1,.68-.15,6.82,6.82,0,0,0,6.65.17.49.49,0,0,1,.68.18.51.51,0,0,1-.19.68A8.35,8.35,0,0,1,27.13,53.9Z"/><path class="cls-3" d="M15.89,43.93a1.07,1.07,0,0,0-.1.36,4.54,4.54,0,0,0,0,.69,8.89,8.89,0,0,0,.2,1.77,14.94,14.94,0,0,0,1.31,3.73,13.48,13.48,0,0,0,1,1.69,7.13,7.13,0,0,0,1.19,1.33,2.32,2.32,0,0,0,.29.21l.12.08.14.07c.22.1.5.21.78.31a14.12,14.12,0,0,0,1.84.48,21,21,0,0,0,4,.39,18.76,18.76,0,0,0,3.91-.14,8.7,8.7,0,0,0,3.3-1.14,4,4,0,0,0,.59-.46l.14-.13.16-.17.31-.35a12.79,12.79,0,0,0,1.14-1.54,13.82,13.82,0,0,0,1.63-3.51,8.36,8.36,0,0,0,.35-1.78A3.17,3.17,0,0,0,38,44.46a.65.65,0,0,0-.15-.26l0,0-.08-.06a1.06,1.06,0,0,0-.26-.12,5.27,5.27,0,0,0-1.68-.25,36.52,36.52,0,0,0-4.26.31,19.76,19.76,0,0,1-2.31,0L26.91,44c-.77,0-1.52-.06-2.27-.09s-1.51,0-2.25,0l-.57,0-.59,0-1.14-.07c-.75,0-1.48,0-2.16,0a12.23,12.23,0,0,0-1.78.12,1,1,0,0,0-.25.07Zm15.25-2.37a37.14,37.14,0,0,1,4.5-.85,10.5,10.5,0,0,1,1.27-.06,6.73,6.73,0,0,1,1.43.16,5.39,5.39,0,0,1,.78.25,2.22,2.22,0,0,1,.41.2,3.62,3.62,0,0,1,.41.27A4.15,4.15,0,0,1,41.13,43a5.64,5.64,0,0,1,.47,1.54A7.69,7.69,0,0,1,41.69,46a11.89,11.89,0,0,1-.34,2.57,18.12,18.12,0,0,1-1.83,4.59,15.62,15.62,0,0,1-1.38,2.08l-.4.5-.21.24-.25.26a8.21,8.21,0,0,1-1.11.95,12.44,12.44,0,0,1-4.88,2,21.45,21.45,0,0,1-4.89.41,24.93,24.93,0,0,1-4.77-.82,17.62,17.62,0,0,1-2.37-.83A10.28,10.28,0,0,1,18,57.3l-.16-.1-.17-.12-.33-.24c-.2-.17-.39-.33-.56-.5a10.36,10.36,0,0,1-.9-1c-.27-.35-.51-.69-.74-1a23.85,23.85,0,0,1-1.25-2.11c-.37-.71-.72-1.43-1-2.18a19.23,19.23,0,0,1-.81-2.32,11.67,11.67,0,0,1-.43-2.6,6.49,6.49,0,0,1,.09-1.5,5,5,0,0,1,.62-1.73A4,4,0,0,1,15,40a5.19,5.19,0,0,1,.83-.1,8.3,8.3,0,0,1,2.62.36c.77.22,1.49.49,2.19.73.35.11.7.23,1,.32a10.14,10.14,0,0,0,1,.25c.72.17,1.43.33,2.15.44A13.93,13.93,0,0,0,27,42.2,9.3,9.3,0,0,0,29.06,42C29.76,41.9,30.45,41.72,31.14,41.56Z"/><path class="cls-3" d="M5.52,20.55a10.28,10.28,0,0,1-5.36-11C.93,4.86,6.56,2.43,10,5.32c0,0,.37-3.9,7.45-5.2C22.48-.81,25.68,4,25.68,4S27.24,1.35,33,2c5.1.56,6.22,4.13,6.22,4.13s4.09-1.79,7.72.16c6.14,3.3,1.62,10.57,0,12.55,0,0,2.53,7.65-.94,12H44.81a9.74,9.74,0,0,1-.13-7.07s-2.53-3.25-2.29-5.62c0,0-7.57,2.24-10.8,0,0,0-4.05,2.46-8.31.73,0,0-8,2-11.63.16,0,0,.28,5.37-2.28,6.36,0,0,.57,3.88-1.07,5.62H6.53S3.32,24.35,5.52,20.55Z"/><path class="cls-5" d="M30.66,49a3.25,3.25,0,0,1-6.34,1,3.34,3.34,0,0,1-.16-1,3.25,3.25,0,1,1,6.5,0Z"/><path class="cls-6" d="M30.2,50.64A3.25,3.25,0,0,1,24.32,50a6,6,0,0,1,3.4-.27A6.24,6.24,0,0,1,30.2,50.64Z"/><path class="cls-3" d="M12.54,24.67a7.7,7.7,0,0,0,5,2.37c3.23.27,5.86-3.18,5.86-3.18l-2.33-1.48a4.82,4.82,0,0,1-3.49,1.75,6.59,6.59,0,0,1-2-.46,2.55,2.55,0,0,0-3,1Z"/><path class="cls-3" d="M30.89,25.27a9.32,9.32,0,0,1,5.8-2.54,5.94,5.94,0,0,1,5.83,4.33h0a2,2,0,0,1-2.65,0,5,5,0,0,0-3-1.54c-1.86.05-4.65,1.69-4.65,1.69Z"/></g></g></svg>